Format                                   : Matroska
Format version                           : Version 2
File size                                : 1.46 GiB
Duration                                 : 1h 58mn
Overall bit rate                         : 1 761 Kbps
Movie name                               : Prometheus.[2012].720p.BRRip.x264.[Dual Audio].6Ch.[Hindi+English].by K@rtik [ExD Exclusive]
Codec ID                                 : V_MPEG4/ISO/AVC
Duration                                 : 1h 58mn
Bit rate                                 : 928 Kbps
Width                                    : 1 280 pixels
Height                                   : 520 pixels
Display aspect ratio                     : 2.462
Frame rate                               : 25.000 fps
Color space                              : YUV
Chroma subsampling                       : 4:2:0
Bit depth                                : 8 bits
Scan type                                : Progressive
Bits/(Pixel*Frame)                       : 0.056
Stream size                              : 759 MiB (51%)
Title                                    : K@rtik
Writing library                          : x264 core 125 r2200 999b7
Codec ID                                 : A_AC3
Duration                                 : 1h 58mn
Bit rate mode                            : Constant
Bit rate                                 : 448 Kbps
Channel(s)                               : 6 channels
Channel positions                        : Front: L C R, Side: L R, LFE
Sampling rate                            : 48.0 KHz
Bit depth                                : 16 bits
Stream size                              : 380 MiB (25%)
Title                                    : K@rtik
Language                                 : English
Codec ID                                 : A_AC3
Bit rate                                 : 384 Kbps
Channel(s)                               : 6 channels
Channel positions                        : Front: L C R, Side: L R, LFE
Sampling rate                            : 48.0 KHz
Bit depth                                : 16 bits
Stream size                              : 326 MiB (22%)
Title                                    : K@rtik
Language                                 : Hindi 
http://img856.imageshack.us/img856/5053/91225159.png 
http://img805.imageshack.us/img805/6738/26979353.png 
http://img254.imageshack.us/img254/8894/83691742.png 
http://img849.imageshack.us/img849/1015/10327911.png 
http://img84.imageshack.us/img84/24/75535828.png 
http://img40.imageshack.us/img40/9645/42338509.png 
http://img528.imageshack.us/img528/295/63811983.png 
http://img253.imageshack.us/img253/2186/99559995.png 
http://img821.imageshack.us/img821/5197/56373838.png 
http://img801.imageshack.us/img801/5328/98385824.png
